<svg width="24" height="24" viewBox="0 0 24 24" fill="none" xmlns="http://www.w3.org/2000/svg">
<path fill-rule="evenodd" clip-rule="evenodd" d="M17.2782 2.61305C17.3746 2.37719 17.5574 2.18703 17.7893 2.08141C18.0212 1.97579 18.2847 1.96267 18.5259 2.04474C18.7671 2.12681 18.9679 2.29788 19.0873 2.523C19.2067 2.74812 19.2356 3.01032 19.1682 3.25605L19.1302 3.36605L16.5202 9.78605L17.1772 9.96105C18.2272 10.2421 19.1012 11.0951 19.2672 12.2591C19.4092 13.2591 19.5422 14.7791 19.3592 16.3451C19.1772 17.8971 18.6692 19.6231 17.4122 20.8911C16.9502 21.3571 16.2872 21.4311 15.8392 21.4391C15.3282 21.4471 14.7392 21.3691 14.1342 21.2491C12.9182 21.0071 11.4592 20.5591 10.0802 20.0831L9.66617 19.9381L8.85317 19.6441L8.07317 19.3531L7.33917 19.0701L6.36117 18.6821C5.80895 18.4611 5.25957 18.233 4.71317 17.9981C4.55424 17.9292 4.41593 17.8202 4.31179 17.6818C4.20764 17.5434 4.14122 17.3803 4.11904 17.2086C4.09686 17.0368 4.11968 16.8622 4.18527 16.7019C4.25085 16.5416 4.35695 16.401 4.49317 16.2941C5.87117 15.2141 7.16317 13.9721 8.25517 12.8251L8.78317 12.2611C8.86983 12.1684 8.9535 12.0771 9.03417 11.9871L9.50617 11.4601L9.72617 11.2081L10.3202 10.5131L10.6572 10.1071C11.01 9.67413 11.4733 9.34459 11.9981 9.15325C12.5228 8.96191 13.0894 8.91589 13.6382 9.02005L13.8372 9.06605L14.5742 9.26305L17.2782 2.61305ZM13.3192 10.9981C13.1165 10.9475 12.9035 10.9562 12.7057 11.0233C12.5078 11.0903 12.3334 11.2127 12.2032 11.3761L11.9602 11.6691L17.3582 13.1151L17.3112 12.7231L17.2862 12.5411C17.2502 12.2881 17.0712 12.0501 16.7762 11.9311L16.6602 11.8931L13.3192 10.9981ZM5.56517 7.71605L5.62917 7.85605C5.90186 8.42014 6.33133 8.8937 6.86617 9.22005L6.96617 9.27805C6.97656 9.28401 6.98519 9.2926 6.99119 9.30296C6.9972 9.31332 7.00036 9.32508 7.00036 9.33705C7.00036 9.34903 6.9972 9.36079 6.99119 9.37115C6.98519 9.38151 6.97656 9.3901 6.96617 9.39605L6.86617 9.45405C6.33141 9.78109 5.90227 10.2554 5.63017 10.8201L5.56617 10.9591C5.56062 10.9717 5.55152 10.9824 5.53998 10.9899C5.52844 10.9975 5.51495 11.0015 5.50117 11.0015C5.48738 11.0015 5.4739 10.9975 5.46236 10.9899C5.45081 10.9824 5.44171 10.9717 5.43617 10.9591L5.37217 10.8191C5.09948 10.255 4.67001 9.7814 4.13517 9.45505L4.03517 9.39705C4.02478 9.3911 4.01615 9.38251 4.01014 9.37215C4.00414 9.36179 4.00098 9.35003 4.00098 9.33805C4.00098 9.32608 4.00414 9.31432 4.01014 9.30396C4.01615 9.2936 4.02478 9.28501 4.03517 9.27905L4.13517 9.22105C4.66956 8.89387 5.09833 8.41961 5.37017 7.85505L5.43417 7.71605C5.43971 7.70343 5.44881 7.6927 5.46036 7.68517C5.4719 7.67763 5.48538 7.67362 5.49917 7.67362C5.51295 7.67362 5.52644 7.67763 5.53798 7.68517C5.54952 7.6927 5.55962 7.70343 5.56517 7.71605ZM8.39717 2.85705C8.43717 2.76705 8.56317 2.76705 8.60317 2.85705L8.70517 3.07905C9.14003 3.97668 9.82388 4.7303 10.6752 5.25005L10.8322 5.34305C10.849 5.35239 10.8631 5.36608 10.8729 5.3827C10.8827 5.39932 10.8879 5.41826 10.8879 5.43755C10.8879 5.45684 10.8827 5.47578 10.8729 5.4924C10.8631 5.50902 10.849 5.52271 10.8322 5.53205L10.6742 5.62405C9.82274 6.14408 9.13888 6.89806 8.70417 7.79605L8.60417 8.01805C8.59536 8.03817 8.58087 8.05527 8.56249 8.06729C8.54411 8.0793 8.52263 8.0857 8.50067 8.0857C8.47871 8.0857 8.45723 8.0793 8.43885 8.06729C8.42046 8.05527 8.40598 8.03817 8.39717 8.01805L8.29517 7.79605C7.86046 6.89806 7.1766 6.14408 6.32517 5.62405L6.16717 5.53205C6.15029 5.52271 6.13622 5.50902 6.12642 5.4924C6.11662 5.47578 6.11145 5.45684 6.11145 5.43755C6.11145 5.41826 6.11662 5.39932 6.12642 5.3827C6.13622 5.36608 6.15029 5.35239 6.16717 5.34305L6.32617 5.25005C7.17746 4.7303 7.8613 3.97668 8.29617 3.07905L8.39617 2.85705H8.39717Z" fill="currentColor"/>
</svg>
